<svg xmlns="http://www.w3.org/2000/svg" width="600" height="600" viewBox="0 0 600 600">
  <g fill="none" fill-rule="evenodd">
    <rect width="523" height="523" x="43" y="36" fill="#FFF" rx="29"/>
    <g fill-rule="nonzero" transform="translate(205 69)">
      <path fill="#FAE2BE" d="M183,79.6111111 L183,274.819444 C183,288.722446 171.788464,299.993056 157.958333,299.993056 C144.128203,299.993056 132.916667,288.722446 132.916667,274.819444 L132.916667,79.6111111 C132.916667,65.7081096 144.128203,54.4375 157.958333,54.4375 C171.788464,54.4375 183,65.7081096 183,79.6111111 Z M50.0833333,36.1736111 L50.0833333,274.819444 C50.0833333,288.722446 38.8717973,299.993056 25.0416667,299.993056 C11.2115361,299.993056 0,288.722446 0,274.819444 L0,36.1736111 C0,22.2706096 11.2115361,11 25.0416667,11 C38.8717973,11 50.0833333,22.2706096 50.0833333,36.1736111 Z M116.541667,100.618056 L116.541667,274.826389 C116.541667,288.72939 105.330131,300 91.5,300 C77.6698694,300 66.4583333,288.72939 66.4583333,274.826389 L66.4583333,100.618056 C66.4583333,86.715054 77.6698694,75.4444444 91.5,75.4444444 C105.330131,75.4444444 116.541667,86.715054 116.541667,100.618056 Z" transform="matrix(1 0 0 -1 0 311)"/>
      <path fill="#ED65E8" d="M190,68.6111111 L190,263.819444 C190,277.722446 178.788464,288.993056 164.958333,288.993056 C151.128203,288.993056 139.916667,277.722446 139.916667,263.819444 L139.916667,68.6111111 C139.916667,54.7081096 151.128203,43.4375 164.958333,43.4375 C178.788464,43.4375 190,54.7081096 190,68.6111111 Z M57.0833333,25.1736111 L57.0833333,263.819444 C57.0833333,277.722446 45.8717973,288.993056 32.0416667,288.993056 C18.2115361,288.993056 7,277.722446 7,263.819444 L7,25.1736111 C7,11.2706096 18.2115361,0 32.0416667,0 C45.8717973,0 57.0833333,11.2706096 57.0833333,25.1736111 Z M123.541667,89.6180556 L123.541667,263.826389 C123.541667,277.72939 112.330131,289 98.5,289 C84.6698694,289 73.4583333,277.72939 73.4583333,263.826389 L73.4583333,89.6180556 C73.4583333,75.715054 84.6698694,64.4444444 98.5,64.4444444 C112.330131,64.4444444 123.541667,75.715054 123.541667,89.6180556 Z" transform="matrix(1 0 0 -1 0 289)"/>
      <path fill="#000" d="M187,74.6111111 L187,269.819444 C187,283.722446 175.788464,294.993056 161.958333,294.993056 C148.128203,294.993056 136.916667,283.722446 136.916667,269.819444 L136.916667,74.6111111 C136.916667,60.7081096 148.128203,49.4375 161.958333,49.4375 C175.788464,49.4375 187,60.7081096 187,74.6111111 Z M54.0833333,31.1736111 L54.0833333,269.819444 C54.0833333,283.722446 42.8717973,294.993056 29.0416667,294.993056 C15.2115361,294.993056 4,283.722446 4,269.819444 L4,31.1736111 C4,17.2706096 15.2115361,6 29.0416667,6 C42.8717973,6 54.0833333,17.2706096 54.0833333,31.1736111 Z M120.541667,95.6180556 L120.541667,269.826389 C120.541667,283.72939 109.330131,295 95.5,295 C81.6698694,295 70.4583333,283.72939 70.4583333,269.826389 L70.4583333,95.6180556 C70.4583333,81.715054 81.6698694,70.4444444 95.5,70.4444444 C109.330131,70.4444444 120.541667,81.715054 120.541667,95.6180556 Z" transform="matrix(1 0 0 -1 0 301)"/>
    </g>
    <text fill="#000" fill-rule="nonzero" font-family="Baloo-Regular, Baloo" font-size="108" font-weight="600">
      <tspan x="113" y="493">mlaurel</tspan>
    </text>
    <line x1="536.5" x2="76.5" y1="534.5" y2="534.5" stroke="#ED65E8" stroke-linecap="round" stroke-width="7"/>
  </g>
</svg>
